<?xml version="1.0" encoding="utf-8"?>
<!-- Generator: Adobe Illustrator 21.0.0, SVG Export Plug-In . SVG Version: 6.00 Build 0)  -->
<svg version="1.1" id="Layer_1" xmlns="http://www.w3.org/2000/svg" xmlns:xlink="http://www.w3.org/1999/xlink" x="0px" y="0px"
	 width="1400px" height="980px" viewBox="0 0 1400 980" enable-background="new 0 0 1400 980" xml:space="preserve">
<g>
	<g>
		<g>
			<rect id="XMLID_5_" fill="#8299CE" width="1400" height="980"/>
		</g>
	</g>
	<circle fill="#738BBC" cx="700" cy="490" r="411"/>
	<g>
		<g>
			<path fill="#37673F" d="M1150.7,579.2c33.3-7.2,54.9-42.6,55.3-76.7c0.4-34-16.2-66.1-36.7-93.3c-27-35.9-61.5-66.2-100.6-88.4
				c7.8-6.8,13.2-16.2,15.1-26.4c-70.3-23.6-134.9,5.1-183.3,53.8c0.5-14.5-1.6-27.8-8-38.3c-23-37.7-99.5,15.1-121.6,33.3
				l28.8,16.1c-4.7,1.8-9.3,4.4-13.9,8.1c-38.4,30.7-68.2,74.3-85.7,120c-11.9,31.2-16.3,71.6,8.8,93.6c8.3,7.3,18.4,11.2,29.2,13
				c-0.1,7.2-0.2,14.5,0,21.7c0.3,15.2,1.5,30.3,2.5,45.5c2.3,37.5,4.1,76.3-1.7,113.7c9,23.2-9.5,52,2.9,73.7
				c6,10.6,17.3,15.8,29.6,18.7c14.9,10.6,35,14.4,53.6,17.4c61.8,10,123.6,19.9,185.5,29.9c19.1,3.1,38.5,6.2,57.7,4
				c45.6-5,82.5-37.9,116.1-69.1C1159.7,761.8,1155.1,670.1,1150.7,579.2z"/>
			<g>
				<path fill="#2C5632" d="M963.8,341.7c16,3.8,33.2,7.7,48.8,2.2c24.7-8.6,36.8-36.9,56.4-53.7c-55.9-13.2-107.5,6.1-149.6,40.8
					C934.2,334.6,949,338.1,963.8,341.7z"/>
				<path fill="#2C5632" d="M898.8,326.1c-1.3-5.9-3.3-11.3-6.3-16.2c-12.5-20.4-40.6-14.3-67.3-1.5
					C849.8,314.3,874.3,320.2,898.8,326.1z"/>
				<path fill="#2C5632" d="M1150.7,579.2c33.3-7.2,54.9-42.6,55.3-76.7c0.4-34-16.2-66.1-36.7-93.3c-7.3-9.7-15.1-18.9-23.4-27.8
					c-9.1,3.4-19.4,5.3-28.9,6.7c-28.2,4.1-56.5,8.2-84.7,12.3c-11.3,1.7-23.1,3.5-32.6,9.9c-9.5,6.4-16,18.8-12,29.5
					c26.3-12.4,52.9-24.9,81.5-30.3c28.6-5.4,59.7-2.9,84,13.1c-45.4,2.3-95.6,6.8-126.7,39.9c-17.3,18.4-25.9,43.3-40.6,63.8
					c-14.7,20.5-40.9,37.4-64.4,28.2c-26.6-10.3-32.6-45.5-53.1-65.3c-31.3-30.2-88.6-18.4-118.2-50.3c37.6-5.3,77.2,5.6,106.7,29.4
					c-6.1-24.5-29.2-40.8-52.7-50.1c-17.2-6.8-35.4-11-52.6-17.6c-22,25.7-39.5,55.6-51.3,86.6c-11.9,31.2-16.3,71.6,8.8,93.6
					c8.3,7.3,18.4,11.2,29.2,13c-0.1,7.2-0.2,14.5,0,21.7c0.3,15.2,1.5,30.3,2.5,45.5c2.3,37.5,4.1,76.3-1.7,113.7
					c9,23.2-9.5,52,2.9,73.7c6,10.6,17.3,15.8,29.6,18.7c14.9,10.6,35,14.4,53.6,17.4c61.8,10,123.6,19.9,185.5,29.9
					c19.1,3.1,38.5,6.2,57.7,4c45.6-5,82.5-37.9,116.1-69.1C1159.7,761.8,1155.1,670.1,1150.7,579.2z"/>
			</g>
			<path fill="#FFF5C9" d="M843.7,566.5c6,87.2,18.3,175.2,5.9,261.7c73.8,28.7,158.7,28,232-2c-12.8-143.4-25.6-286.8-40-430
				c-3.5-34.5-9.7-73.5-38.5-92.7c-36.4-24.1-120.2-7-139.3,34.8C833,405.7,838.8,494.7,843.7,566.5z"/>
			<path fill="#D0CAB0" d="M1041.6,396.2c-1.9-18.9-4.6-39.1-11.4-56.7c-9.6,74.3-53.1,163.5-72,201.4
				c-17.8,35.6-38.1,70-60.9,102.7c10.9-54.8,21.8-109.6,32.7-164.4c0.9-4.4,1.5-9.6-1.6-12.8c-5-5.2-13.4-0.3-19.4,3.7
				c-20.2,13.5-46.5,14-69.2,5c-0.1,31.6,2,62.9,3.9,91.4c6,87.2,18.3,175.2,5.9,261.7c73.8,28.7,158.7,28,232-2
				C1068.8,682.8,1056,539.4,1041.6,396.2z"/>
			<path d="M1138,916.7c-0.7-39.6-2.2-79.2-5-118.6c-1.8-25-0.9-47-28.6-53.7c-9.8-2.3-20-4-30.5-5.1c2.6,29,5.2,57.9,7.8,86.9
				c-73.3,30-158.2,30.7-232,2c3.2-22.2,4.8-44.5,5.2-66.9c-18,4.9-35.1,12.6-47.3,26.4c-39.8,45-3.2,121.9-34.5,173.1
				c104.2,23.2,212.5,27.6,318.2,12.9c13.1-1.8,27.3-4.5,36.3-14.2C1137.8,948.4,1138.2,931.8,1138,916.7z"/>
			<g>
				<path fill="#ECC19C" d="M999.2,211c12.4-23.3,8.1-54.4-10.3-73.4c-18.4-19-49.3-24.3-73-12.6c-23.7,11.7-38.3,39.5-34.4,65.6
					c-2.2-2.6-6.8-0.2-8.9,2.5c-2.1,2.7-2.5,6.3-2.8,9.8c-0.4,5.1-0.8,10.4,1.5,15c2.2,4.6,8.1,7.8,12.6,5.4
					c-6.8,41.1-11,83.2-10.3,124.9c0.4,20.6,21.7,35.9,40.3,44.8c14.9,7.1,33.1,6,47.7-1.6c14.6-7.6,25.7-21.4,31.2-36.9
					c13-36.5-3.6-78.7-0.6-117.3c6.7,2.3,12.9-3.6,14.5-10.4C1008.4,219.8,1006.2,211.8,999.2,211z"/>
				<path fill="#CF9E76" d="M996.1,294.9c-2.1-19.4-5.3-39-3.8-57.8c6.7,2.3,12.9-3.6,14.5-10.4c1.6-6.9-0.6-14.9-7.6-15.7
					c3.8-7.1,6-14.8,6.7-22.8c-1.6,1.2-3.2,2.5-4.5,3.9c-12.6,13-18.2,30.9-27.2,46.6c-9,15.7-24.3,30.5-42.3,28.8
					c-19.7-1.9-31.9-22.1-38.4-40.7c-2.6-7.3-7.3-26-14.9-37.3c-2.2,0.1-4.7,1.8-6.1,3.6c-2.1,2.7-2.5,6.3-2.8,9.8
					c-0.4,5.1-0.8,10.4,1.5,15c2.2,4.6,8.1,7.8,12.6,5.4c-4.5,27.4-7.9,55.3-9.4,83.2c3.6,4.5,7.3,8.8,11.1,13
					c8.1,8.9,16.8,17.6,27.3,23.5c10.5,5.9,23.2,8.8,34.9,5.6c14.7-4.1,25.1-16.9,33.6-29.5C986.6,311.2,991.5,303.1,996.1,294.9z"
					/>
				<path fill="#FFF5C9" d="M916.9,235.9c3,2.1,6.5,3.4,10,4.2c5.2,1.1,10.7,1.3,15.6-0.6c4.9-1.9,9.1-6.2,9.9-11.4
					c-13.9,2.9-28.5,1.9-41.8-2.7c-0.3-0.1,1.3,5.1,1.5,5.4C913.3,232.7,915,234.5,916.9,235.9z"/>
				<path fill="#7D4921" d="M1010.7,177.5c4.7-2.3,7.3-8,6.1-13c-1.2-5-6.2-8.9-11.4-8.8c4.7-5.9,0.1-16.4-7.5-16.9
					c2.6-8.2-3.8-17.9-12.4-18.8c1.5-8.3-8.8-16.1-16.4-12.3c-2.3-7.4-14.6-8.6-18.2-1.7c-1.5-4.6-6.1-8.1-10.9-8.4
					c-4.9-0.3-9.8,2.6-11.9,7c-2.1-4-7.2-6.2-11.6-4.9c-4.3,1.3-7.4,6-6.8,10.5c-3.8-2.2-9.1-1.6-12.2,1.5
					c-3.1,3.1-3.9,8.3-1.8,12.2c-7.4-0.5-15.3,9.8-11.2,16c-3.5,0.2-6.7,2.8-7.7,6.2c-1,3.4,0.4,7.3,3.3,9.3
					c-3.3,0.9-4.3,5.2-3.5,8.5c0.8,3.3,2.8,6.2,3.4,9.6c0.7,3.9-0.6,7.9-0.9,11.9c-0.3,4,0.2,8.7,3.9,10
					c-3.1,17.7-6.2,35.8-3.7,53.6c2.5,17.8,11.7,35.6,27.6,44c11.8,6.2,25.9,6.7,39.1,4.3c10.6-1.9,21.3-5.8,29-13.4
					c9-8.9,12.7-21.8,14.7-34.2c2-12.5,2.7-25.3,7.1-37.1c5-0.9,9-1.5,14-2.4c-1.1-4.6-2.2-9.2-3.2-13.8
					C1015.8,194.6,1017.8,181.6,1010.7,177.5z M960.7,249.5c-0.8,3.4-2.3,7.3-5.7,8c-2.9,0.6-5.7-1.5-7.6-3.7
					c-2-2.2-3.9-4.8-6.8-5.6c-5.4-1.4-9.9,4.1-15.3,5.5c-6.2,1.6-12.7-2.7-15.6-8.4c-2.6-5.1-3.5-12.2-2.8-17.8
					c1-7.8,4.8-2.4,10-0.6c12.1,4.3,25.8,4.1,37.8-0.6c2.4-0.9,5.5-1.9,7.3,0c1.1,1.1,1.1,2.9,1.1,4.4
					C962.9,237,962.1,243.3,960.7,249.5z M969.9,227.9c2.3-4.7-5.2-9.3-11.4-9c-6.2,0.3-11.9,3.1-18.1,3.1
					c-6.7,0.1-12.9-3.1-19.4-4.6c-6.5-1.5-15-0.7-17.4,4.5c2.2-6.4-3.1-12.9-6.5-19.1c-7.5-13.8,5.4-32.6,7.8-47.4
					c-8.5-23.3,5.1-33,32.1-23.6c10.5,3.6,14.9,3.9,26.3,2.7c12.8-1.4,24.6,2.1,26.2,14.4c0.8,6.7-2.3,13.3-6.7,18.8
					C989,188.3,984.2,210.8,969.9,227.9z"/>
				<path fill="#EA7E73" d="M942.6,209.1c0.5-1.2,2.2-1.5,3.2-0.9c1.1,0.7,1.5,2.1,1.5,3.4c-0.1,1.3-0.6,2.5-1.2,3.6
					c-1,2.1-2,4.1-3.4,5.9c-1.5,1.7-3.4,3.2-5.7,3.5c-3.1,0.5-6.3-1.2-8.4-3.5c-2.1-2.4-3.4-5.4-4.5-8.3c-0.5-1.3-1-2.6-1-4
					c0-1.4,0.7-2.9,1.9-3.4c1.3-0.6,3.1,0.2,3.2,1.6c1.3-5,3.3-9.9,5.7-14.4c0.6-1.1,1.3-2.2,2.3-3c1-0.8,2.4-1.1,3.5-0.5
					c1.6,0.8,1.8,2.9,1.9,4.7C941.9,198.6,942.4,204.1,942.6,209.1z"/>
				<g>
					<path fill="#7D4921" d="M933.7,163.3c-4.9-2.4-10.3-2.3-15.3-0.4c-3.6,1.4-9.5,4.1-9.3,8.7c0.1,1.9,1.9,2.9,3.5,1.8
						c5.8-4.1,11.9-7.6,19.2-4.9C935.3,169.8,936.9,164.8,933.7,163.3z"/>
					<path fill="#7D4921" d="M936.2,163.2c0.2,1,0.5,1.9,0.6,2.9c0.2,1.3-0.5,2.6-1.3,3.6c-0.1,0.1,0.1,0.3,0.2,0.2
						c1.8-1.6,2.8-5,1.1-7C936.6,162.6,936.1,162.8,936.2,163.2z"/>
					<path fill="#7D4921" d="M939.2,164.1c0,1-0.1,2.1-0.4,3.1c-0.3,0.8-1,1.6-1,2.4c0,0.2,0.2,0.5,0.4,0.4c1.1-0.3,1.5-1.6,1.7-2.6
						c0.3-1.2,0.3-2.2-0.2-3.4C939.6,163.7,939.2,163.8,939.2,164.1z"/>
					<path fill="#7D4921" d="M954,166.8c0.1-0.2-0.2-0.5-0.3-0.3c-0.7,0.7-1.2,1.5-1.4,2.5c-0.2,0.6-0.4,1.9,0.3,2.3
						c0.2,0.1,0.3,0.1,0.4-0.1c0.4-0.5,0.1-1.3,0.2-1.9C953.2,168.4,953.5,167.6,954,166.8z"/>
					<path fill="#7D4921" d="M950.7,166.1c-0.7,0.6-1.1,1.3-1.4,2.2c-0.3,0.8-0.5,1.8-0.1,2.5c0.2,0.3,0.6,0.4,0.7,0.1
						c0.4-0.6,0.3-1.3,0.5-2c0.2-0.8,0.5-1.6,0.7-2.5C951.2,166.1,950.9,165.9,950.7,166.1z"/>
					<path fill="#7D4921" d="M966.3,170.9c-3.2-2-8.9-4.9-12.4-2.5c-0.6,0.4-0.5,1.3-0.2,1.9c2,2.8,6.9,2.9,9.8,4.6
						c2.8,1.6,4.6,4.2,7.3,6c0.7,0.5,1.7,0,1.8-0.8C972.8,175.8,969.6,172.9,966.3,170.9z"/>
				</g>
				<path d="M927.1,178.1c-0.1-0.6-0.5-1.2-0.9-1.5c-0.1-0.8-0.6-1.7-1.4-1.9c-2.9-0.8-4.8,2.4-4.5,4.9c0.1,1.3,0.9,2.3,2,2.9
					c1.4,0.7,3.2,0.2,4.1-1C927,180.6,927.3,179.3,927.1,178.1z"/>
				<path d="M958.9,180.7c-0.8-1.2-2.1-1.8-3.5-1.5c-1.3,0.2-2.5,1.6-2.5,2.9c0,0.1,0,0.3,0,0.4c0,0.2-0.1,0.3-0.1,0.5
					c-0.1,1,0.1,2,0.8,2.8c0.8,1,2.4,1.3,3.6,0.8C959.3,185.6,960.1,182.6,958.9,180.7z"/>
				<path d="M967.6,176.6c-3.2-2.7-7.7-3.4-11.8-3.5c-3.1,0-7.5-0.3-8.7,3.1c-0.1,0.4,0.1,0.9,0.5,1.2c-0.9,1.5-1.7,3.3-2.3,5.2
					c-2.1-1.5-5.6-2.5-7.9-1.4c0-4.5-1.3-8.9-4.1-11.4c-3.2-2.8-9.2-2.6-13.2-2.4c-3.3,0.2-6.5,0.9-8.9,2.7
					c-6.4,1.7-5.9,15.7-3.3,20c4.5,7.5,17.9,9.7,24.6,3.9c3-2.5,4.7-7.3,4.9-12.1c1.4,0.2,2.8-0.1,4.2,0.3c1.2,0.3,2.3,1,3.3,1.6
					c-1.4,5.2-1.2,10.8,2.7,14.2c5.2,4.5,17,6.7,21.2-0.2C972.4,191.6,973.6,181.6,967.6,176.6z M932.3,191.2
					c-4.6,6.2-16.3,4.9-21.2-0.4c-2.8-3-3-6.8-2.6-10.7c0.3-3.1,1-5.1,2.6-6.9c5.4-3.3,12.1-3.9,18.3-2.2
					C937.6,173.1,936.4,185.7,932.3,191.2z M967.7,195.9c-3.4,7-14,4.7-18.6,0.3c-5.4-5.1-1.9-14.1,1-19.8c4.4-2.1,13.4-0.3,16.2,2
					C971.3,182.3,970.2,190.8,967.7,195.9z"/>
				<path d="M906.7,180.1c-3.4,1.3-6.8,2.6-10.3,3.8c-2.3,0.7-5.4,1.3-7.4,2.6c-0.3,0.2-0.5,0.5-0.4,0.8c0,0.1,0,0.2,0,0.3
					c0.1,0.7,1,0.6,1.3,0.1c0.3-0.6,4.2-1.3,4.9-1.6c1.3-0.4,2.5-0.8,3.8-1.2c2.9-1,5.9-1.6,8.8-2.5
					C909.1,181.9,908.4,179.4,906.7,180.1z"/>
				<path d="M988.9,207c-7-4.2-12.5-11.3-18.2-17.1c-0.7-0.7-1.8,0.3-1.1,1c5.7,6.1,12.9,11,18.2,17.4
					C988.5,209.3,989.9,207.7,988.9,207z"/>
			</g>
			<path fill="#ECC19C" d="M1058.1,587.2c15.4,1.1,31.1,2.2,46.2-0.9c15.1-3.1,30-11,38.1-24.2c15.6-25.5-0.8-60.9-26.5-76.2
				c-25.8-15.3-57.3-15.9-87.2-16.1c-51.8-0.3-105.2-0.3-153.1,19.3c-13.2,5.4-48.4,24.7-44.1,44c3.6,16.3,50.3,26.7,65.3,31.1
				C949,579.3,1003.9,583.3,1058.1,587.2z"/>
			<path fill="#CF9E76" d="M1070.9,471.8c-13.9-1.7-28.3-1.9-42.3-2c-51.8-0.3-105.2-0.3-153.1,19.3c-13.2,5.4-48.4,24.7-44.1,44
				c2.4,11,24.4,19.3,43.1,24.9c22-8.1,43.4-21.6,56-30.1c24.8-16.8,50.1-34.8,79.5-40.1c13.6-2.5,27.7-2.1,41-5.7
				C1058.1,480.2,1065.3,476.7,1070.9,471.8z"/>
			<path fill="#ECC19C" d="M1063,474.5c-13.6,13.9-36.6,3.9-56,3.2c-17.6-0.6-34.3,7.4-50.1,15.1c-64.2,31.6-132.4,62.4-196.7,94
				c-20.8-9.4-36.6-29.2-41.1-51.6c-4.5-22.4-4.6-60,18-63.5c228.5-35.5,194.6-55.7,287.6-29.8
				C1041.5,446.6,1058.8,457.5,1063,474.5z"/>
			<path fill="#DFB28B" d="M1053,463.4c-13.2,9.6-31.5,1.9-47.8,2.9c-8.8,0.5-17.2,3.6-25.4,6.7c-31.1,11.6-62.1,23.3-93.2,34.9
				c0.2-5.2,0.3-10.4,0.5-15.6c-37.5,24-76.7,45.2-117.4,63.3c-7.1,3.2-15.3,6.3-22.5,3.4c-9.3-3.8-12.3-15.4-13.5-25.3
				c-2.5-20-3.3-40.1-2.3-60.2c-16.9,8.5-16.4,41.4-12.4,61.7c4.5,22.4,20.3,42.2,41.1,51.6c64.2-31.6,132.4-62.4,196.7-94
				c15.8-7.8,32.5-15.7,50.1-15.1c19.4,0.7,42.4,10.7,56-3.2c-1.3-5.2-3.7-9.7-7-13.8C1055.1,461.7,1054.1,462.6,1053,463.4z"/>
		</g>
		<g>
			<g>
				<path fill="#ECC19C" d="M924.2,890.5c2.8,3.9,5.7,8.1,5.5,12.9c-0.3,7.3-8,12.4-15.3,13.2c-8.5,0.9-17-2.4-23.9-7.4
					c-6.9-5-12.4-11.6-17.6-18.4c-8.1-10.4-15.5-21.3-22.4-32.5c-2.7-4.5-5.5-9.4-4.8-14.6c0.6-4.1,3.2-7.6,5.7-10.8
					c3.9-5.1,10.4-18,17.9-16.8c6,1,15.4,19.5,18.9,24.4C900.2,857.2,912.3,873.8,924.2,890.5z"/>
				<path fill="#CF9E76" d="M888.2,840.5c-3.5-4.9-12.9-23.5-18.9-24.4c-7.5-1.2-14,11.7-17.9,16.8c-2.5,3.3-5.1,6.7-5.7,10.8
					c-0.7,5.2,2,10.1,4.8,14.6c2.2,3.7,4.6,7.3,6.9,10.9c9.2-6.8,18.1-13.9,26.9-21.3c2-1.7,3.9-3.4,5.6-5.1
					C889.3,842.1,888.8,841.3,888.2,840.5z"/>
				<path fill="#69539C" d="M847.4,858.4c14.9-6.5,27.4-17.4,41.6-25.5c0.5-0.3,0.9-0.5,1.4-0.8c-7.1-15.1-14.9-29.9-22.7-44.6
					c-9.7-18.3-19.9-37.2-36.7-49.3c-14.1-10.1-31.4-14.4-48.2-18.5c-23.3-5.7-47.3-20.7-68.1-9c-26.2,14.7-62.6,3.4-86.3,21.9
					c-14.4,11.2-19.7,30.2-26,47.4c-8,22.1-19,43.1-32.5,62.3c-0.2,0.3-0.5,0.7-0.7,1c6.2,2.6,10.1,8.8,16.1,12
					c12.1,6.3,25.1,9.6,37.2,11.9c0.1-0.2,6-18.9,13.9-30.7c1.1,26.6,2.3,52.5,3.4,79.1c63.8,19.3,133.4,16.3,196.4-5.5
					c-8.5-28.9-14.5-60.8-15.1-90.9C829.9,832,838.7,845.2,847.4,858.4z"/>
				<path fill="#544487" d="M867.7,787.5c-9.7-18.3-19.9-37.2-36.7-49.3c-12.7-9.2-28.1-13.6-43.3-17.4c2.4,11.6,2.5,24.3,1.7,36.6
					c-2.2,35.4-16.5,70.3-40.6,96.5c-28,30.5-68.1,48.8-109.4,52.1c0.1,3.1,0.3,6.3,0.4,9.4c63.8,19.3,133.4,16.3,196.4-5.5
					c-8.5-28.9-14.5-60.8-15.1-90.9c8.9,12.9,17.7,26.2,26.4,39.4c14.9-6.5,27.4-17.4,41.6-25.5c0.5-0.3,0.9-0.5,1.4-0.8
					C883.3,817,875.5,802.2,867.7,787.5z"/>
				<path fill="#ECC19C" d="M785.2,588.2c-0.4-1.9-1.5-3.7-3.2-4.5c-2.9-1.4-6.3,0.2-8.9,2.2c-0.1-5.2-0.2-10.4-0.5-15.6
					c-0.7-14.5-2-29.1-7.1-42.7c-5.1-13.6-14.5-26-27.7-32.1c-13.2-6.1-25.4-7.2-35.4,3.3c-12,2.3-21.1,13-24.9,24.6
					c-3.7,11.7-3.1,24.2-2,36.4c0.9,9.5,2,19,3.4,28.4c-3.8-1-8.4-1.5-11,1.4c-2.6,2.9-1.7,7.3-0.2,10.9c3,7,8.1,13.1,14.4,17.4
					c0.7,0.4,1.4,0.9,2.2,1.2c0,0.1,0,0.1,0,0.2c3.2,15.6,9,33.3,23.9,38.7c-0.6,21.6-0.4,42.1-1,63.7c-5.6,5.2-8.2,12.1-8,19.7
					c0.2,7.6,2.9,14.9,6.4,21.7c3.7,7.2,8.6,14,15.1,18.7c6.6,4.7,15,7.3,22.9,5.5c10.4-2.3,18.1-11.6,21.4-21.7
					c5-15.1,1.5-32.7-9-44.7c2-22,0.5-44.8-1.7-66.7c10-3.4,15.4-17,16.7-27.5c0.6-5.1,1.1-10.2,1.4-15.3c2.6-1.1,4.7-3.1,6.5-5.3
					c2.9-3.5,4.9-7.7,6-12.1C785.4,592.1,785.6,590.1,785.2,588.2z"/>
				<path fill="#B07E09" d="M724.7,520.4c-7.1-2.6-14.5-4.7-22-4.5c-7.5,0.2-15.2,3-20.1,8.6c-4.9,5.7-6.4,14.6-2.4,20.9
					c-2.1,18-0.9,36.3,3.3,53.8c-0.5,0.7-3.8,1.2-4.5,0.7c-3.8-18.9-5.9-38.4-9.8-57.3c-0.9-4.3-1.8-8.7-1.5-13.1s1.8-8.9,5.1-11.8
					c-7-5.7-7.6-17.3-3-25c4.6-7.8,12.7-12.7,20.9-16.4c7.6-3.5,15.7-6.2,24.1-6.6c8.4-0.3,17.1,1.9,23.3,7.5
					c-4.4-6.9-12.8-12-21-12.7c13.6,0.1,26.8,7.6,32.4,20.1c6-1.6,12.2-0.8,17.4,2.6c5.2,3.4,8.8,9.2,9.8,15.3
					c-2.3-1.9-5-4.2-7.3-6.1c6.7,12.2,6.7,26.8,6.4,40.7c-0.3,17.4-0.6,34.9-0.8,52.3c-1.8,0.2-2.8-0.3-4.6-0.1
					c4.1-16.1,1.4-33.9-7.4-48c3.9-5.5,1.9-14-2.3-19.2c-4.1-5.2-11-7.9-17.7-7.8C736.5,514.6,730.5,517,724.7,520.4z"/>
				<path fill="#855914" d="M713.9,559.6c-7.5-5.2-18.1-1.7-22.3,5.9c-0.6,1,0.9,2.2,1.7,1.3c5.2-5.8,11.4-6.2,18.3-3.2
					C714.2,564.9,716.4,561.4,713.9,559.6z"/>
				<path fill="#855914" d="M758.6,560.5c-2.7-6.7-24.7-7.1-23.4,2.1c0.1,0.8,1.1,1.3,1.8,1.1c1.4-0.4,2.2-1.1,3.5-1.7
					c1.9-0.9,4.2-0.9,6.1-1.3c2.2-0.4,4.2-0.7,6.4-0.2c1.8,0.4,3.2,1.2,5,1.1C758.5,561.5,758.8,561,758.6,560.5z"/>
				<path fill="#69539C" d="M708.6,578.6c-0.4-1.1-1.2-1.6-2.1-1.6c-0.8-0.9-2.6-0.5-2.9,0.8c-0.7,2.9-0.7,5.9-0.2,8.8
					c0.3,2,3.1,1.9,4,0.5C709.1,584.5,709.6,581.4,708.6,578.6z"/>
				<path fill="#69539C" d="M748.1,576.1c-0.3-0.9-1-1.6-1.9-1.7c-0.3-1-1.5-1.6-2.4-0.7c-2.4,2.3-2.2,6.3-1.1,9.2
					c0.6,1.4,2.7,2.6,4,1C748.5,581.7,749.2,578.9,748.1,576.1z"/>
				<path fill="#CF9E76" d="M719.9,623.1c0.5,1.4,1,2.8,2,4c1,1.1,2.5,1.9,4,1.5c1.5-0.4,2.5-1.8,3.2-3.2c3-5.6,4.6-11.9,4.6-18.2
					c0,3.1-17.4,0.9-18.8,1.3C715.8,613.4,718.3,618.3,719.9,623.1z"/>
				<path fill="#EA7E73" d="M730.6,604.3c-0.4-6-0.4-12-0.1-18c0,0,0,0,0,0c-1.4-1-3.1-1.7-4.8-1.9c-2.5-0.3-4.3,0.5-5.9,1.7
					c0.2,6.3,0.2,12.5-0.1,18.8c-1.7-1.2-4.7,0.9-4.6,3c0.1,2.1,3.2,3.3,4.7,1.9c-0.2,3.2,2.9,6.3,6,6.2c3.2-0.1,5.9-3.5,5.1-6.5
					c1.6,0.6,3.4-1,3.4-2.7C734.3,605.1,732.2,603.7,730.6,604.3z"/>
				<g>
					<path fill="#855914" d="M680.3,545.5c-0.1-0.1-0.1-0.2-0.2-0.3c-4-1.5-7.8-3.3-11.3-5.4c0.2,1,0.4,1.9,0.6,2.9
						c3.8,18.9,5.9,38.4,9.8,57.3c0.7,0.5,4,0.1,4.5-0.7C679.3,581.8,678.2,563.5,680.3,545.5z"/>
					<path fill="#855914" d="M765.2,535.9c-0.2,2-0.8,4-2,5.6c8.8,14.1,11.5,31.9,7.4,48c1.8-0.2,2.8,0.3,4.6,0.1
						c0.3-17.4,0.6-34.9,0.8-52.3c0.1-3.5,0.1-7.1,0-10.7C772.9,530,769.2,533.1,765.2,535.9z"/>
				</g>
				<rect x="775.2" y="809.8" transform="matrix(0.7396 -0.673 0.673 0.7396 -372.994 746.2676)" width="5.5" height="90.7"/>
				<path fill="#ECC19C" d="M750.3,904.2c-61.8,3-123.6,4-185.5,3.1c-4.8-0.1-10.4-0.7-12.7-4.8c-2-3.6-0.3-8,1.4-11.8
					c7.6-17,15.2-34.1,22.8-51.1c14.7,0.3,31.2,5.3,43.1,14c-4.9,9.9-8.3,18.5-13.2,28.5c37.4,4.9,98,1.6,135.7,0.4
					c3.6-19,15.7-24.3,34.9-26.2s23.3-0.1,36.5,14.1c3.6,3.8,6.8,8.1,8.2,13.1c1.4,5,0.8,10.9-2.8,14.7c-3.8,4.1-9.8,5.1-15.4,5.7
					C784.8,905.9,769,903.3,750.3,904.2z"/>
				<path fill="#CF9E76" d="M744.8,691.7c5.7-8.5,9.3-18.4,10.4-28.6c-0.3-3-0.6-6-0.9-9c0.4-0.1,0.8-0.3,1.2-0.5c0-0.1,0-0.1,0-0.2
					c-13.1,7.1-28.7,9.2-43.3,6.3c-1.2-0.2-2.5-0.7-4-1.3c-0.2,9-0.4,17.8-0.4,26.5c2.9,2.8,6,5.5,9.1,8.1c5.7,4.6,13.1,9,19.8,6.3
					C740.2,697.8,742.7,694.8,744.8,691.7z"/>
				<g>
					<path fill="#CF9E76" d="M569.2,857.9c14.8,1.8,29.4,4.8,43.6,9c0.1,0,0.3,0.1,0.4,0.1c2-4.4,4-8.8,6.3-13.5
						c-11.9-8.7-28.4-13.7-43.1-14c-2.7,6.1-5.4,12.2-8.1,18.2C568.6,857.8,568.9,857.9,569.2,857.9z"/>
					<path fill="#CF9E76" d="M821.6,883.5c-1.4-5-4.7-9.3-8.2-13.1c-3.8-4.1-6.8-7.1-9.6-9.3c0.1,5.3-5.3,10.8-10.1,8.5
						c2.7,5.3,1.4,12.4-3.1,16.4c2,5.3-3.1,11.9-8.8,11.3c1.5,2.3,2.5,4.8,3.1,7.5c6,0.1,12.1-0.1,18.5-0.7
						c5.6-0.6,11.6-1.6,15.4-5.7C822.3,894.4,823,888.5,821.6,883.5z"/>
				</g>
				<path fill="#F5E0CD" d="M724.7,620.2c-7.7,0.1-13.7-3-20.9-4.6c0,9.9,12,17.9,21,17.8c10.2-0.1,19.7-8.7,20.8-18.8
					C739.3,618.2,732,620.1,724.7,620.2z"/>
				<path fill="#D36762" d="M721.2,608.6c-2.1,0-4.1-0.6-6.2-1c0,0.2,0,0.3,0,0.5c0.1,2.1,3.2,3.3,4.7,1.9c-0.2,3.2,2.9,6.3,6,6.2
					c3.2-0.1,5.9-3.5,5.1-6.5c1.6,0.6,3.4-1,3.4-2.7c0-0.4-0.1-0.7-0.3-1c-1.7,0.7-3.3,1.3-3.7,1.4
					C727.4,608.1,724.3,608.6,721.2,608.6z"/>
				<path fill="#855914" d="M724.7,520.6c0.6-7.6-3.6-15.4-10.2-19.3c-6.6-3.8-15.5-3.5-21.8,0.8c-3.8,2.6-7.2,7-8.2,11.6
					c-1.8,8.2,2.1,5.1,7.8,3.2C703,513.6,715.1,514.8,724.7,520.6z"/>
				<path fill="#F5BA3D" d="M720.5,507.8c-4.8-2.3-11.2-0.3-15,3c-6.9,5.9-13.1,25.6-2.7,31.2c0.3,0.2,0.8-0.3,0.4-0.6
					c-7.2-6.2-5.1-18.6,0.3-25.5c3-3.9,7.9-7.5,13-5.9c4.4,1.4,6.1,4.8,6.9,9c0.2,0.9,1.6,1.1,2,0.3
					C727.3,514.9,724.6,509.8,720.5,507.8z"/>
			</g>
			<g>
				<path fill="#E6E7E8" d="M1146.3,615.6H849.5c-1.3,0-2.4,0.9-2.6,2.2l-34,209.6c-0.3,1.6,1,3,2.6,3h121
					c-8.9,19.4-17.3,44-14.3,63.4H812.4v13.8h297.4v-13.8H984.4c-3.5-9.5-6.6-29.4,6.7-63.4h121.1c1.3,0,2.4-0.9,2.6-2.2l34-209.6
					C1149.1,617.1,1147.9,615.6,1146.3,615.6z"/>
				<path fill="#414042" d="M1146.3,620.3H851.9c-1.3,0-2.4,0.9-2.6,2.2l-33.8,206.3c-0.3,1.6,1,3,2.6,3h120
					c-8.8,19.1-17.1,43.3-14.2,62.3H815.1v13.6h295V894H985.7c-3.5-9.3-6.6-28.9,6.7-62.3h120.1c1.3,0,2.4-0.9,2.6-2.2l33.8-206.3
					C1149.1,621.7,1147.9,620.3,1146.3,620.3z"/>
				<path fill="#272628" d="M1146.3,620.3h-26.9c-31.4,27.5-69.2,48.5-106.4,68c-60.5,31.6-123,61.7-187.9,82.1l-9.6,58.4
					c-0.3,1.6,1,3,2.6,3h120c-8.8,19.1-17.1,43.3-14.2,62.3H815.1v13.6h295V894H985.7c-3.5-9.3-6.6-28.9,6.7-62.3h120.1
					c1.3,0,2.4-0.9,2.6-2.2l33.8-206.3C1149.1,621.7,1147.9,620.3,1146.3,620.3z"/>
			</g>
		</g>
		<g>
			<path fill="#CF9E76" d="M273.1,700.7c7.7-2.1,15.7-4.3,23.6-3.3c8,1,16,5.8,18.3,13.5c9.8,3,18.4,8,23,17.2
				c4.6,9.2,5.3,20.3,1.8,29.9c8.9,37.2,15.3,74.1,21.2,111.8c27.6-22.1,53.2-45.9,77.6-71.5c10,18.7,15.3,40.7,15.6,61.9
				c-31.3,18.3-61,38.5-92.3,56.9c-4.9,2.9-10.5,5.8-15.9,4.4c-7.8-2.1-10.7-11.5-12.1-19.5c-7.6-42.6-12.5-85.7-14.6-129
				c-24-7.9-44.1-28-50.8-52.4c-1.2-4.2-2-8.7-1-13C268.5,703.3,268.8,701.9,273.1,700.7z"/>
			<path fill="#414042" d="M364.9,713l-85.1,3.6l-8.1,2.6c-0.8,0.2-0.7,1.3,0.1,1.5l9.2,1.5l83.9-3.6
				C365,718.6,368.9,716.9,364.9,713z"/>
			<path fill="#EA7E73" d="M527.9,961c18.9-43.4,45.7-84.8,56.5-131c6.2-26.4,6.9-53.8,4.4-80.8c-1.9-19.8-7-41.7-23.8-52.5
				c-35-22.6-89,11.8-107.4,41.9c-10.4,16.9-18.8,35.2-23.9,54.3c-20.7,77.8-56,132.1-86.8,168.1H527.9z"/>
			<path fill="#D1645E" d="M346.8,961h181.1c18.9-43.4,45.7-84.8,56.5-131c4.4-18.8,6-38.2,5.7-57.5c-13.2,35-31.7,68-54.7,97.5
				c-5.1-14.2-14.1-26.9-25.8-36.3c-32.1,37.7-86.5,87.1-138.1,95.2C363.2,941,354.9,951.7,346.8,961z"/>
			<path fill="#ECC19C" d="M558.3,498.4c-13.1-2-29.2,4-39.7,12.1c-10.5,8.1-16.6,20.6-21.2,33.1c-7.3,19.6-11.8,40.1-16.4,60.4
				c-6,1-4.6,20.7-2.7,31c1.9,10.3,9.1,20.3,19.3,22.3c-1.5,20.7-3,41.5-4.5,62.3c18.9-5,38.1-13.3,55.1-22.9
				c-9.8-16.4-10.3-39-2.5-56.5c7.4-16.4,39.4-50.3,48-66.1C610,544.5,589.6,503.1,558.3,498.4z"/>
			<path fill="#CF9E76" d="M598.9,543c-9.4-8.1-21.9-13.1-34-16.6c-17.6-5-35.9-8.1-54.1-8c-5.9,7.3-10,16.3-13.3,25.2
				c-1.6,4.3-3,8.6-4.4,12.9c0.1,0,0.2,0,0.3,0c17.3,2.2,34.2,7.4,49.7,15.4c-1.5,19.9-5.7,40.1-17.1,56.5
				c-8.8,12.5-22.5,22.2-37.3,24.6c2.6,2.1,5.7,3.6,9,4.3c-0.5,6.5-0.9,13-1.4,19.4c10.1,1.5,20.6-2,29.8-6.6
				c5-2.5,9.7-5.3,14.4-8.3c0.5-7.6,2.3-15,5.3-21.7c7.4-16.4,39.4-50.3,48-66.1C599.1,564.4,600.5,553.5,598.9,543z"/>
			<path fill="#855914" d="M581.1,555.8c-6.6-7.3-23.2-7.2-27.2,2.9c-2.3,5.8-1.2,13.7-2.6,19.9c-1.7,7.6-4.6,14.9-8.4,21.7
				c-3.4,5.9-3,1.7-9.6,3.5c-6,1.7-9.3,20.6-13.6,16.2c-16.1-16.2-26.2-16-33.9-18.6c-3.4-1.1-5.9,0.4-9.4,1.4
				c-5.1,1.5-7.8,6.9-9.7,11.9c-4.4,11.8-7.4,25.4-1.7,36.6c6.2,12.1,21.6,17.6,34.9,14.9s24.4-12.2,32-23.5
				c7.6-11.3,12.1-24.3,16.6-37.1c1.2-3.3,2.4-6.8,4.9-9.2c2.5-2.5,6.7-3.6,9.6-1.6c3.5,2.4,3.2,7.7,1.8,11.7
				c-3.1,8.5-10,15.5-18.4,18.8c2.2,7,13.1,9.2,17.8,3.5c3.1,1.3,7,0.6,9.5-1.8s3.3-6.2,2.2-9.4c3.6,0.8,7.3-1.9,8.9-5.2
				c1.6-3.3,1.7-7.2,1.7-10.9c0.1-7.4,0.1-14.8,0.2-22.2C586.9,571.2,586.7,562,581.1,555.8z M511.7,621c-2,6.4-4.1,12.8-7.8,18.4
				c-1.5,2.3-3.3,4.5-5.9,5.4c-2.6,0.9-5.9-0.2-6.7-2.8c-0.7-2.2,0.7-4.6,0.5-6.9c-0.2-2.3-1.9-4.3-4.1-4.8s-4.7,0.6-5.8,2.6
				c-0.6,1-0.8,2.2-1.3,3.2c-0.5,1.1-1.4,2-2.6,2.1c-1.3,0.1-2.4-1.1-2.7-2.4c-0.3-1.3,0-2.6,0.1-3.9c0.8-5.7,0.1-11.6-2-17
				c-1.1-2.8-1-4.5,2.1-4c3.3,0.6,6.6,1.2,10,1.7c6.6,0.9,13.3,1.4,20,1.5c2.4,0,5.4,0.3,6.4,2.5C512.6,618,512.2,619.6,511.7,621z"
				/>
			<path fill="#855914" d="M581.1,555.8c-6.6-7.3-23.2-7.2-27.2,2.9c-2.3,5.8-1.2,13.7-2.6,19.9c-1.7,7.6-4.6,14.9-8.4,21.7
				c-3.4,5.9-3,1.7-9.6,3.5c-6,1.7-9.3,20.6-13.6,16.2c-16.1-16.2-26.2-16-33.9-18.6c-3.4-1.1-5.9,0.4-9.4,1.4
				c-5.1,1.5-7.8,6.9-9.7,11.9c-4.4,11.8-7.4,25.4-1.7,36.6c6.2,12.1,21.6,17.6,34.9,14.9s24.4-12.2,32-23.5
				c7.6-11.3,12.1-24.3,16.6-37.1c1.2-3.3,2.4-6.8,4.9-9.2c2.5-2.5,6.7-3.6,9.6-1.6c3.5,2.4,3.2,7.7,1.8,11.7
				c-3.1,8.5-10,15.5-18.4,18.8c2.2,7,13.1,9.2,17.8,3.5c3.1,1.3,7,0.6,9.5-1.8s3.3-6.2,2.2-9.4c3.6,0.8,7.3-1.9,8.9-5.2
				c1.6-3.3,1.7-7.2,1.7-10.9c0.1-7.4,0.1-14.8,0.2-22.2C586.9,571.2,586.7,562,581.1,555.8z M511.7,621c-2,6.4-4.1,12.8-7.8,18.4
				c-1.5,2.3-3.3,4.5-5.9,5.4c-2.6,0.9-5.9-0.2-6.7-2.8c-0.7-2.2,0.7-4.6,0.5-6.9c-0.2-2.3-1.9-4.3-4.1-4.8s-4.7,0.6-5.8,2.6
				c-0.6,1-0.8,2.2-1.3,3.2c-0.5,1.1-1.4,2-2.6,2.1c-1.3,0.1-2.4-1.1-2.7-2.4c-0.3-1.3,0-2.6,0.1-3.9c0.8-5.7,0.1-11.6-2-17
				c-1.1-2.8-1-4.5,2.1-4c3.3,0.6,6.6,1.2,10,1.7c6.6,0.9,13.3,1.4,20,1.5c2.4,0,5.4,0.3,6.4,2.5C512.6,618,512.2,619.6,511.7,621z"
				/>
			<path fill="#855914" d="M505.7,543.8c-2.5-1.1-5.7-0.7-8.4-0.3c-2.8,0.4-5.3,1.4-7,3.7c-0.8,1.1,0.5,2.7,1.8,2.3
				c1.8-0.6,3.5-1.3,5.4-1.4c1.4-0.1,4.3-0.6,5.5,0.1C506.1,549.9,508.7,545.1,505.7,543.8z"/>
			<path fill="#855914" d="M539.2,562.7c-3.3-5.3-7.3-10.5-13.7-11.9c-2.7-0.6-3.9,3.6-1.2,4.2c5.2,1.2,8.3,5.6,11,9.9
				C536.9,567.4,540.8,565.1,539.2,562.7z"/>
			<path fill="#69539C" d="M532.5,570.8c0.2-0.9-0.7-2.1-1.7-1.7c-1.5,0.6-2.2,2-2.7,3.4c-0.5,1.3-0.9,2.8-0.2,4
				c0.9,1.5,2.8,1.3,3.7,0.1c1-1.2,1.3-3,1.4-4.5C533.1,571.5,532.9,571.1,532.5,570.8z"/>
			<path fill="#69539C" d="M497.4,560.7c-0.7-1.1-2.2-1.3-3.3-0.6c-1.1,0.7-1.4,2.2-1.1,3.4c0.1,0.2,0.1,0.4,0.2,0.5
				c-0.2,1.1-0.1,2.4,0.1,3.5c0.3,1.4,2.3,1.5,3,0.4C497.5,566.1,498.8,562.7,497.4,560.7z"/>
			<path fill="#EA7E73" d="M478.1,587.7c-1.7,1.6-3.6,3.7-2.9,6c0.7,2.4,3.6,3.1,6,3.5c3.7,0.5,7.3,0.8,11,1c2.8,0.2,6.1,0,7.6-2.3
				c1.5-2.3,0.4-5.4,0.1-8.1c-0.4-3.9,0.9-7.7,2.4-11.3c1.5-3.6,3.4-7.1,4-10.9c0.4-2.1,0.6-9.7-2.6-10.3c-2.4-0.4-5.9,7.9-7.1,9.7
				C491.4,573.2,485.1,580.8,478.1,587.7z"/>
			<path fill="#FFF5C9" d="M606.8,544.7c-0.5-12.5-6.7-24.4-15.2-33.6c-11.6-12.4-28.4-20.5-45.4-19.8c-13.2,0.5-25.8,6.5-34.6,16.3
				c-4.4,4.9-5.1,6.9-11.8,5.4c-7.2-1.6-14.3-4.7-21.3-7c-3.7-1.2-7.6-2.4-11.4-1.6c-1.3,0.3-5.6,2.1-5.5,4.1c0.2,2.7,1.9,1.3,3.7,2
				c4.2,1.7,7.8,1.3,11.6,4.6c4.9,4.3,8,10.3,12.5,15c8.9,9.5,22.2,13.5,35.1,15.6c11.2,1.8,22.8,2.6,33.7,5.8
				c11.7,7.5,24.8,16.1,35.1,25.6C603.8,570.4,607.4,557.3,606.8,544.7z"/>
			<g>
				<polygon fill="#58595B" points="360.4,839.6 279.9,828.8 197.1,665.2 280.3,657.1 				"/>
				<polygon fill="#808285" points="357.3,842.1 276.8,831.4 194,667.8 277.2,659.7 				"/>
			</g>
			<path fill="#ECC19C" d="M546.5,847.1c-8.3-19.8-24-36.5-43.2-46.1c-22.8,28.8-46.9,58.2-73.2,83.9
				c-20.9-24.1-43.3-45.7-64.2-69.8c1.8-16.2-2.4-34.4-11.8-47.8c-0.8-1.2-36.3-33.3-35.6-16.4c0.3,6.1,28.8,24.3,30.6,26.6
				c-12-8.5-62.2-28.2-72.8-26.5c-2.4,0.4-6.3,2.3-7.5,4.4c-1.9,3.2,39.2,11.4,40.7,14.8c-35.8-0.3-44.9-13-58.4-5.5
				c-10.2,5.7,30.3,19.5,47.8,21.1c-25.5,8.8-36-6.9-40.7-3.3c-11.7,8.8,22.8,18.4,37.4,17.2c-7.9,0.4-16.8-0.5-24.7-0.1
				c-1.6,3.9,3,7.3,6.8,9c20.8,8.7,43.1,13.7,65.6,14.6c25.4,43.6,54.5,83.9,86.8,122.6C474.7,921.4,516.1,887.8,546.5,847.1z"/>
			<path fill="#FFF197" d="M606.8,544.7c-0.5-12.5-6.7-24.4-15.2-33.6c-3.2-3.4-6.8-6.5-10.7-9.2c-4.8,17-15.4,34.8-22.8,45.7
				c-0.7,1.1-1.5,2.2-2.3,3.3c0.8,0.2,1.6,0.4,2.3,0.6c11.7,7.5,24.8,16.1,35.1,25.6C603.8,570.4,607.4,557.3,606.8,544.7z"/>
		</g>
	</g>
	<rect x="401.5" y="903" fill="#FFF5C9" width="696.9" height="67.4"/>
	<path fill="#FFFFFF" d="M0,0v980h1400V0H0z M1371.7,891.9c0,37.8-30.6,68.4-68.4,68.4H96.6c-37.8,0-68.4-30.6-68.4-68.4V88.1
		c0-37.8,30.6-68.4,68.4-68.4h1206.7c37.8,0,68.4,30.6,68.4,68.4V891.9z"/>
</g>
</svg>
